<svg id="Capa_1" enable-background="new 0 0 512 512" height="512" viewBox="0 0 512 512" width="512" xmlns="http://www.w3.org/2000/svg"><g><path d="m211 180.85h90v271h-90z" fill="#c0e1f0"/><path d="m61 180.85h90v271h-90z" fill="#c0e1f0"/><path d="m361 180.85h90v271h-90z" fill="#8fc3d9"/><path d="m256 180.85h45v271h-45z" fill="#8fc3d9"/><path d="m31 421.85h450v75h-450z" fill="#edf9ff"/><path d="m256 421.85h225v75h-225z" fill="#c0e1f0"/><path d="m31 120.85h450v90h-450z" fill="#edf9ff"/><path d="m256 120.85h225v90h-225z" fill="#c0e1f0"/><path d="m256 .15-256 95.199v55.501h512v-55.501z" fill="#c0e1f0"/><path d="m512 95.349v55.501h-256v-150.7z" fill="#8fc3d9"/><path d="m256 421.85h225v75h-225z" fill="#c0e1f0"/><path d="m0 481.85h512v30h-512z" fill="#97de3d"/><path d="m256 481.85h256v30h-256z" fill="#59c36a"/><path d="m241 60.85h30v30h-30z" fill="#2d5177"/><path d="m256 60.85h15v30h-15z" fill="#32405d"/></g></svg>