<?xml version="1.0" encoding="iso-8859-1"?>
<!-- Generator: Adobe Illustrator 19.0.0, SVG Export Plug-In . SVG Version: 6.00 Build 0)  -->
<svg version="1.1" id="Layer_1" xmlns="http://www.w3.org/2000/svg" xmlns:xlink="http://www.w3.org/1999/xlink" x="0px" y="0px"
	 viewBox="0 0 512 512" style="enable-background:new 0 0 512 512;" xml:space="preserve">
<path style="fill:#F2ECBF;" d="M447.976,124.842v350.513c0,20.241-16.405,36.645-36.645,36.645H106.467
	c-20.241,0-36.645-16.405-36.645-36.645V53.443c0-20.241,16.405-36.645,36.645-36.645h233.465L447.976,124.842z"/>
<path style="fill:#BFA380;" d="M447.976,124.842h-71.399c-20.241,0-36.645-16.405-36.645-36.645V16.799L447.976,124.842z"/>
<polygon style="fill:#556080;" points="394.135,146.901 389.182,151.853 389.093,151.853 353.168,187.867 304.998,236.037 
	317.694,248.822 109.799,450.955 62.709,403.955 52.445,393.691 78.736,367.941 78.826,367.941 262.321,187.867 299.056,151.853 
	335.79,115.839 349.567,102.333 "/>
<path style="fill:#EFCE4A;" d="M109.799,450.955l-43.218,25.03l-32.773,18.998L14.81,505.968c-4.25,2.593-9.787,1.243-12.371-2.998
	c-1.666-2.737-1.756-6.159-0.235-8.977l50.24-100.301l10.264,10.264L109.799,450.955z"/>
<path style="fill:#1F436D;" d="M510.877,39.528v0.721c-0.027,10.633-4.304,20.816-11.885,28.272l-33.133,33.223l-1.8,1.8l0,0
	c-7.023-6.977-18.367-6.977-25.391,0l-13.685,13.506l-31.152,31.062l-45.018-45.018l59.154-58.074l32.413-32.413
	c8.139-8.076,19.142-12.605,30.612-12.605c10.877-0.108,21.329,4.25,28.902,12.064C506.906,19.504,510.832,29.318,510.877,39.528z"
	/>
<path style="fill:#212F3F;" d="M467.776,114.679c0,4.799-1.909,9.4-5.313,12.785l-23.949,23.949L329.3,261.079l-12.785-12.695
	l-12.695-12.785l83.734-84.184l4.952-4.952l30.973-31.062l13.866-13.596c7.023-6.977,18.367-6.977,25.391,0l0,0l1.8,2.161
	C466.732,107.107,467.866,110.853,467.776,114.679z"/>
<rect x="333.339" y="204.369" transform="matrix(-0.7071 0.7071 -0.7071 -0.7071 741.6585 137.5456)" style="fill:#21232A;" width="18.007" height="36.013"/>
<g>
</g>
<g>
</g>
<g>
</g>
<g>
</g>
<g>
</g>
<g>
</g>
<g>
</g>
<g>
</g>
<g>
</g>
<g>
</g>
<g>
</g>
<g>
</g>
<g>
</g>
<g>
</g>
<g>
</g>
</svg>
