<?xml version="1.0" encoding="UTF-8" standalone="no"?>
<!-- Generator: Adobe Illustrator 16.0.0, SVG Export Plug-In . SVG Version: 6.00 Build 0)  -->

<svg
   xmlns:dc="http://purl.org/dc/elements/1.1/"
   xmlns:cc="http://creativecommons.org/ns#"
   xmlns:rdf="http://www.w3.org/1999/02/22-rdf-syntax-ns#"
   xmlns:svg="http://www.w3.org/2000/svg"
   xmlns="http://www.w3.org/2000/svg"
   xmlns:sodipodi="http://sodipodi.sourceforge.net/DTD/sodipodi-0.dtd"
   xmlns:inkscape="http://www.inkscape.org/namespaces/inkscape"
   version="1.1"
   id="Capa_1"
   x="0px"
   y="0px"
   width="737.408px"
   height="737.407px"
   viewBox="0 0 737.408 737.407"
   style="enable-background:new 0 0 737.408 737.407;"
   xml:space="preserve"
   sodipodi:docname="logo.svg"
   inkscape:version="0.92.3 (2405546, 2018-03-11)"
   inkscape:export-filename="/home/tecnosigma/projects/protector-angels/app/assets/images/logo.png"
   inkscape:export-xdpi="99"
   inkscape:export-ydpi="99"><metadata
   id="metadata41"><rdf:RDF><cc:Work
       rdf:about=""><dc:format>image/svg+xml</dc:format><dc:type
         rdf:resource="http://purl.org/dc/dcmitype/StillImage" /><dc:title /></cc:Work></rdf:RDF></metadata><defs
   id="defs39"><clipPath
     clipPathUnits="userSpaceOnUse"
     id="clipPath893"><rect
       style="opacity:1;fill:none;fill-opacity:1;fill-rule:nonzero;stroke:#ff0000;stroke-width:2.3368609;stroke-linecap:butt;stroke-linejoin:miter;stroke-miterlimit:4;stroke-dasharray:none;stroke-opacity:1"
       id="rect895"
       width="298.62531"
       height="665.76648"
       x="365.82352"
       y="38.235977"
       clip-path="none" /></clipPath><clipPath
     clipPathUnits="userSpaceOnUse"
     id="clipPath230"><rect
       style="opacity:1;fill:none;fill-opacity:1;fill-rule:nonzero;stroke:#ff0000;stroke-width:1;stroke-linecap:butt;stroke-linejoin:miter;stroke-miterlimit:4;stroke-dasharray:none;stroke-opacity:1"
       id="rect232"
       width="196.85017"
       height="392.13803"
       x="169.50987"
       y="150.76224"
       clip-path="none" /></clipPath><clipPath
     clipPathUnits="userSpaceOnUse"
     id="clipPath299"><rect
       style="opacity:1;fill:none;fill-opacity:1;fill-rule:nonzero;stroke:#ff0000;stroke-width:1.04127383;stroke-linecap:butt;stroke-linejoin:miter;stroke-miterlimit:4;stroke-dasharray:none;stroke-opacity:1"
       id="rect301"
       width="213.43504"
       height="392.13803"
       x="-579.7951"
       y="150.76224"
       clip-path="none"
       transform="scale(-1,1)" /></clipPath><clipPath
     clipPathUnits="userSpaceOnUse"
     id="clipPath893-6"><rect
       style="opacity:1;fill:none;fill-opacity:1;fill-rule:nonzero;stroke:#ff0000;stroke-width:2.3368609;stroke-linecap:butt;stroke-linejoin:miter;stroke-miterlimit:4;stroke-dasharray:none;stroke-opacity:1"
       id="rect895-7"
       width="298.62531"
       height="665.76648"
       x="365.82352"
       y="38.235977"
       clip-path="none" /></clipPath></defs><sodipodi:namedview
   pagecolor="#ffffff"
   bordercolor="#666666"
   borderopacity="1"
   objecttolerance="10"
   gridtolerance="10"
   guidetolerance="10"
   inkscape:pageopacity="0"
   inkscape:pageshadow="2"
   inkscape:window-width="1299"
   inkscape:window-height="713"
   id="namedview37"
   showgrid="false"
   inkscape:zoom="0.64008073"
   inkscape:cx="-324.17734"
   inkscape:cy="449.92897"
   inkscape:window-x="67"
   inkscape:window-y="27"
   inkscape:window-maximized="1"
   inkscape:current-layer="Capa_1" />

<g
   id="g6">
</g>
<g
   id="g8">
</g>
<g
   id="g10">
</g>
<g
   id="g12">
</g>
<g
   id="g14">
</g>
<g
   id="g16">
</g>
<g
   id="g18">
</g>
<g
   id="g20">
</g>
<g
   id="g22">
</g>
<g
   id="g24">
</g>
<g
   id="g26">
</g>
<g
   id="g28">
</g>
<g
   id="g30">
</g>
<g
   id="g32">
</g>
<g
   id="g34">
</g>
<flowRoot
   xml:space="preserve"
   id="flowRoot117"
   style="fill:black;stroke:none;stroke-opacity:1;stroke-width:1px;stroke-linejoin:miter;stroke-linecap:butt;fill-opacity:1;font-family:Pagul;font-style:normal;font-weight:normal;font-size:125px;line-height:125%;letter-spacing:0px;word-spacing:0px;text-anchor:start;text-align:start;writing-mode:lr;-inkscape-font-specification:'Pagul, Normal';font-stretch:normal;font-variant:normal;font-variant-ligatures:normal;font-variant-caps:normal;font-variant-numeric:normal"><flowRegion
     id="flowRegion119"><rect
       id="rect121"
       width="189.03865"
       height="196.85017"
       x="-290.58835"
       y="289.02603" /></flowRegion><flowPara
     id="flowPara123" /></flowRoot><g
   id="g337"
   transform="translate(417.13488,26.55915)"
   inkscape:export-filename="/home/tecnosigma/projects/protector-angels/app/assets/images/logo.png"
   inkscape:export-xdpi="99"
   inkscape:export-ydpi="99"><path
     transform="translate(-433.20803,-24.473009)"
     clip-path="url(#clipPath893)"
     inkscape:connector-curvature="0"
     id="path65"
     d="m 346.06627,684.17607 c -30.01331,-20.15061 -49.44624,-36.20287 -77.3082,-63.85911 -29.24966,-29.03373 -45.8167,-48.96817 -65.56885,-78.8963 -64.25783,-97.36245 -97.7825,-215.65783 -101.64449,-358.66355 l -1.0157,-37.61029 14.69082,-2.79574 c 71.01674,-13.51486 149.68671,-42.23041 227.6135,-83.081842 L 365.1551,47.567547 406.10662,67.91906 c 47.02465,23.369652 79.31748,37.06071 118.23377,50.12708 28.77508,9.6614 67.48037,19.91459 91.83704,24.32801 l 14.45131,2.61857 -0.0156,18.15855 c -0.0337,40.54747 -4.87126,97.54933 -11.78067,138.81506 -18.10834,108.15041 -55.27187,196.45949 -115.13522,273.58782 -16.01775,20.63733 -57.59797,62.66267 -78.83959,79.68353 -18.0321,14.44949 -56.25679,40.85097 -59.14449,40.85097 -1.04704,0 -9.88813,-5.36065 -19.64687,-11.91258 z"
     style="opacity:1;fill:#666666;fill-opacity:1;fill-rule:nonzero;stroke:#000000;stroke-width:0;stroke-linecap:butt;stroke-linejoin:miter;stroke-miterlimit:4;stroke-dasharray:none;stroke-opacity:1" /><path
     transform="matrix(-1,0,0,1,297.94974,-24.318909)"
     clip-path="url(#clipPath893-6)"
     inkscape:connector-curvature="0"
     id="path65-5"
     d="m 346.06627,684.17607 c -30.01331,-20.15061 -49.44624,-36.20287 -77.3082,-63.85911 -29.24966,-29.03373 -45.8167,-48.96817 -65.56885,-78.8963 -64.25783,-97.36245 -97.7825,-215.65783 -101.64449,-358.66355 l -1.0157,-37.61029 14.69082,-2.79574 c 71.01674,-13.51486 149.68671,-42.23041 227.6135,-83.081842 L 365.1551,47.567547 406.10662,67.91906 c 47.02465,23.369652 79.31748,37.06071 118.23377,50.12708 28.77508,9.6614 67.48037,19.91459 91.83704,24.32801 l 14.45131,2.61857 -0.0156,18.15855 c -0.0337,40.54747 -4.87126,97.54933 -11.78067,138.81506 -18.10834,108.15041 -55.27187,196.45949 -115.13522,273.58782 -16.01775,20.63733 -57.59797,62.66267 -78.83959,79.68353 -18.0321,14.44949 -56.25679,40.85097 -59.14449,40.85097 -1.04704,0 -9.88813,-5.36065 -19.64687,-11.91258 z"
     style="opacity:1;fill:#b3b3b3;fill-opacity:1;fill-rule:nonzero;stroke:#000000;stroke-width:0;stroke-linecap:butt;stroke-linejoin:miter;stroke-miterlimit:4;stroke-dasharray:none;stroke-opacity:1" /><g
     transform="translate(-601.48662,-37.495271)"
     id="g330"><path
       id="text34"
       style="font-style:normal;font-variant:normal;font-weight:normal;font-stretch:normal;font-size:125px;line-height:125%;font-family:Pagul;-inkscape-font-specification:'Pagul, Normal';font-variant-ligatures:normal;font-variant-caps:normal;font-variant-numeric:normal;text-align:start;letter-spacing:0px;word-spacing:0px;writing-mode:lr-tb;text-anchor:start;fill:#aa4400;fill-opacity:1;stroke:none;stroke-width:1px;stroke-linecap:butt;stroke-linejoin:miter;stroke-opacity:1"
       d="m 379.24584,163.18177 c -2.50099,-1.03798 -4.64353,-1.72501 -6.42528,-2.06009 l -3.21842,-1.56156 c -2.49281,-0.32688 -4.98301,-0.47554 -7.47173,-0.4469 -2.13728,-0.33097 -4.09665,-0.66412 -5.87841,-0.99918 l -2.66722,0.0292 c -33.06447,0.38063 -57.0928,13.45945 -72.08599,39.23374 -6.99195,10.39229 -10.44517,19.32145 -10.35922,26.78762 l 0.0808,6.93209 c 14.0944,-11.18521 24.51874,-16.8174 31.27384,-16.89516 2.47235,-1.45078 7.97407,-2.22566 16.50684,-2.32389 l 0.53424,-0.005 c 1.0707,0.34322 1.95975,0.51066 2.67082,0.50247 1.06659,-0.0123 1.95819,0.15405 2.67335,0.5014 1.42622,0.33915 2.4958,0.50669 3.20687,0.49852 l 1.06558,-0.0126 c 10.55029,3.07872 17.71327,7.23132 21.52858,12.44478 1.81412,1.44331 3.02111,3.91793 3.03364,7.19829 0.12726,0.80815 0.2173,1.62756 0.22703,2.47296 l -0.52051,1.07281 0.0126,1.06558 c -0.34735,0.71516 -0.51993,1.25151 -0.51584,1.60704 l -0.52052,1.07281 -1.04104,2.14561 0.005,0.53243 -0.52775,0.53965 -0.0246,-0.012 -0.053,0.13235 -1.62855,4.06269 -1.38003,3.4427 -1.404,3.50251 -1.42799,3.56234 -1.40618,3.50795 -1.49702,3.73456 -1.49194,3.72188 -1.52754,3.8107 -1.43888,3.58954 -1.4556,3.63123 -1.52682,3.8089 -1.53699,3.83427 -1.52028,3.79257 -1.55952,3.89048 -1.48176,3.69649 -1.13585,2.83356 c -0.46339,1.156 -0.9839,2.17841 -1.5379,3.10165 l -54.83441,135.55485 c -4.95699,1.83495 -9.20574,3.30567 -12.74878,4.41319 l -6.37512,2.20842 c -37.49402,17.14383 -56.11212,36.91389 -55.85428,59.31241 l 0.0173,1.59982 0.53965,0.52774 0.0491,4.26596 c 4.24592,-1.82678 6.53784,-3.63171 6.87291,-5.41346 2.11682,-1.44669 3.88355,-2.35522 5.30159,-2.72712 13.07282,-7.26208 28.31939,-10.99448 45.74046,-11.19504 1.42211,-0.0163 5.8735,0.46617 13.35195,1.44681 19.23147,2.62326 35.49553,10.08238 48.79345,22.37457 l 45.89376,-52.33805 c -0.53912,-0.54694 -1.0089,-1.07803 -1.31,-1.50358 -0.0861,-0.10163 -1.16014,-1.23391 -2.35643,-2.38386 -0.41297,-0.45965 -1.65777,-1.68484 -0.68949,-0.95184 -1.1467,-0.74254 -2.27245,-1.51941 -3.35166,-2.35775 -0.85733,-0.65371 -0.48836,-0.44269 -2.09172,-1.32245 -1.24203,-0.7342 -2.46199,-1.50548 -3.63238,-2.35035 -1.16617,-0.82473 -2.32893,-1.6621 -3.38846,-2.62291 0.0967,0.0561 0.38137,0.23336 0.29004,0.16884 -0.66591,-0.47099 -1.35723,-0.90633 -2.03693,-1.3594 -2.62625,-1.42662 -5.25019,-2.63402 -7.87126,-3.60764 -4.64648,-2.07999 -9.28979,-3.80596 -13.92806,-5.17493 -4.98563,-0.65377 -9.79284,-1.30875 -14.42294,-1.96661 l -13.88979,-1.97382 17.10038,-43.39985 108.25988,-1.24613 c 6.25279,18.06255 11.39931,32.76064 15.44113,44.09264 4.04182,11.33201 6.79614,18.94489 8.26328,22.83938 l 0.53966,0.52774 c 0.0368,3.19979 3.49383,10.09366 10.37171,20.68186 10.87879,18.36488 27.55258,30.43987 50.02074,36.22609 l 48.70096,-78.43271 c -18.07482,5.18618 -28.00101,7.79049 -29.77868,7.81097 -8.53276,0.0982 -15.69075,-3.909 -21.4734,-12.02075 -1.07887,-1.05432 -3.63551,-6.89231 -7.66914,-17.51326 L 403.51276,186.36988 c -4.38508,-10.26131 -12.65242,-17.98776 -24.80189,-23.18162 z m -12.81003,91.88765 30.81477,82.31697 -63.99545,0.73583 z m -88.0539,-0.23252 c -1.26827,1.43595 -2.50421,2.94073 -3.69947,4.53085 0.49686,-0.58342 0.96402,-1.20378 1.51256,-1.68936 0.75333,-0.78436 0.94552,-0.92527 1.49622,-1.66435 0.22252,-0.39705 0.46078,-0.78436 0.69069,-1.17714 z m -2.73088,33.72565 c -0.0439,0.15693 -0.0469,0.20604 0.009,0.008 -0.003,-0.002 -0.006,-0.006 -0.009,-0.008 z"
       inkscape:connector-curvature="0"
       clip-path="url(#clipPath299)"
       transform="translate(167.16641,3.1246059)" /><path
       id="text34-3"
       style="font-style:normal;font-variant:normal;font-weight:normal;font-stretch:normal;font-size:125px;line-height:125%;font-family:Pagul;-inkscape-font-specification:'Pagul, Normal';font-variant-ligatures:normal;font-variant-caps:normal;font-variant-numeric:normal;text-align:start;letter-spacing:0px;word-spacing:0px;writing-mode:lr-tb;text-anchor:start;fill:#ff6600;fill-opacity:1;stroke:none;stroke-width:1px;stroke-linecap:butt;stroke-linejoin:miter;stroke-opacity:1"
       d="m 379.24584,163.18177 c -2.50099,-1.03798 -4.64353,-1.72501 -6.42528,-2.06009 l -3.21842,-1.56156 c -2.49281,-0.32688 -4.98301,-0.47554 -7.47173,-0.4469 -2.13728,-0.33097 -4.09665,-0.66412 -5.87841,-0.99918 l -2.66722,0.0292 c -33.06447,0.38063 -57.0928,13.45945 -72.08599,39.23374 -6.99195,10.39229 -10.44517,19.32145 -10.35922,26.78762 l 0.0808,6.93209 c 14.0944,-11.18521 24.51874,-16.8174 31.27384,-16.89516 2.47235,-1.45078 7.97407,-2.22566 16.50684,-2.32389 l 0.53424,-0.005 c 1.0707,0.34322 1.95975,0.51066 2.67082,0.50247 1.06659,-0.0123 1.95819,0.15405 2.67335,0.5014 1.42622,0.33915 2.4958,0.50669 3.20687,0.49852 l 1.06558,-0.0126 c 10.55029,3.07872 17.71327,7.23132 21.52858,12.44478 1.81412,1.44331 3.02111,3.91793 3.03364,7.19829 0.12726,0.80815 0.2173,1.62756 0.22703,2.47296 l -0.52051,1.07281 0.0126,1.06558 c -0.34735,0.71516 -0.51993,1.25151 -0.51584,1.60704 l -0.52052,1.07281 -1.04104,2.14561 0.005,0.53243 -0.52775,0.53965 -0.0246,-0.012 -0.053,0.13235 -1.62855,4.06269 -1.38003,3.4427 -1.404,3.50251 -1.42799,3.56234 -1.40618,3.50795 -1.49702,3.73456 -1.49194,3.72188 -1.52754,3.8107 -1.43888,3.58954 -1.4556,3.63123 -1.52682,3.8089 -1.53699,3.83427 -1.52028,3.79257 -1.55952,3.89048 -1.48176,3.69649 -1.13585,2.83356 c -0.46339,1.156 -0.9839,2.17841 -1.5379,3.10165 l -54.83441,135.55485 c -4.95699,1.83495 -9.20574,3.30567 -12.74878,4.41319 l -6.37512,2.20842 c -37.49402,17.14383 -56.11212,36.91389 -55.85428,59.31241 l 0.0173,1.59982 0.53965,0.52774 0.0491,4.26596 c 4.24592,-1.82678 6.53784,-3.63171 6.87291,-5.41346 2.11682,-1.44669 3.88355,-2.35522 5.30159,-2.72712 13.07282,-7.26208 28.31939,-10.99448 45.74046,-11.19504 1.42211,-0.0163 5.8735,0.46617 13.35195,1.44681 19.23147,2.62326 35.49553,10.08238 48.79345,22.37457 l 45.89376,-52.33805 c -0.53912,-0.54694 -1.0089,-1.07803 -1.31,-1.50358 -0.0861,-0.10163 -1.16014,-1.23391 -2.35643,-2.38386 -0.41297,-0.45965 -1.65777,-1.68484 -0.68949,-0.95184 -1.1467,-0.74254 -2.27245,-1.51941 -3.35166,-2.35775 -0.85733,-0.65371 -0.48836,-0.44269 -2.09172,-1.32245 -1.24203,-0.7342 -2.46199,-1.50548 -3.63238,-2.35035 -1.16617,-0.82473 -2.32893,-1.6621 -3.38846,-2.62291 0.0967,0.0561 0.38137,0.23336 0.29004,0.16884 -0.66591,-0.47099 -1.35723,-0.90633 -2.03693,-1.3594 -2.62625,-1.42662 -5.25019,-2.63402 -7.87126,-3.60764 -4.64648,-2.07999 -9.28979,-3.80596 -13.92806,-5.17493 -4.98563,-0.65377 -9.79284,-1.30875 -14.42294,-1.96661 l -13.88979,-1.97382 17.10038,-43.39985 108.25988,-1.24613 c 6.25279,18.06255 11.39931,32.76064 15.44113,44.09264 4.04182,11.33201 6.79614,18.94489 8.26328,22.83938 l 0.53966,0.52774 c 0.0368,3.19979 3.49383,10.09366 10.37171,20.68186 10.87879,18.36488 27.55258,30.43987 50.02074,36.22609 l 48.70096,-78.43271 c -18.07482,5.18618 -28.00101,7.79049 -29.77868,7.81097 -8.53276,0.0982 -15.69075,-3.909 -21.4734,-12.02075 -1.07887,-1.05432 -3.63551,-6.89231 -7.66914,-17.51326 L 403.51276,186.36988 c -4.38508,-10.26131 -12.65242,-17.98776 -24.80189,-23.18162 z m -12.81003,91.88765 30.81477,82.31697 -63.99545,0.73583 z m -88.0539,-0.23252 c -1.26827,1.43595 -2.50421,2.94073 -3.69947,4.53085 0.49686,-0.58342 0.96402,-1.20378 1.51256,-1.68936 0.75333,-0.78436 0.94552,-0.92527 1.49622,-1.66435 0.22252,-0.39705 0.46078,-0.78436 0.69069,-1.17714 z m -2.73088,33.72565 c -0.0439,0.15693 -0.0469,0.20604 0.009,0.008 -0.003,-0.002 -0.006,-0.006 -0.009,-0.008 z"
       inkscape:connector-curvature="0"
       clip-path="url(#clipPath230)"
       transform="translate(167.16641,3.1246059)" /></g></g></svg>