<?xml version="1.0" encoding="UTF-8" standalone="no"?>
<!-- Generator: Adobe Illustrator 19.0.0, SVG Export Plug-In . SVG Version: 6.00 Build 0)  -->

<svg
   xmlns:dc="http://purl.org/dc/elements/1.1/"
   xmlns:cc="http://creativecommons.org/ns#"
   xmlns:rdf="http://www.w3.org/1999/02/22-rdf-syntax-ns#"
   xmlns:svg="http://www.w3.org/2000/svg"
   xmlns="http://www.w3.org/2000/svg"
   xmlns:sodipodi="http://sodipodi.sourceforge.net/DTD/sodipodi-0.dtd"
   xmlns:inkscape="http://www.inkscape.org/namespaces/inkscape"
   version="1.1"
   id="Layer_1"
   x="0px"
   y="0px"
   viewBox="0 0 501.551 501.551"
   style="enable-background:new 0 0 501.551 501.551;"
   xml:space="preserve"
   sodipodi:docname="support.svg"
   inkscape:version="0.92.3 (2405546, 2018-03-11)"><metadata
   id="metadata289"><rdf:RDF><cc:Work
       rdf:about=""><dc:format>image/svg+xml</dc:format><dc:type
         rdf:resource="http://purl.org/dc/dcmitype/StillImage" /></cc:Work></rdf:RDF></metadata><defs
   id="defs287" /><sodipodi:namedview
   pagecolor="#ffffff"
   bordercolor="#666666"
   borderopacity="1"
   objecttolerance="10"
   gridtolerance="10"
   guidetolerance="10"
   inkscape:pageopacity="0"
   inkscape:pageshadow="2"
   inkscape:window-width="1299"
   inkscape:window-height="713"
   id="namedview285"
   showgrid="false"
   inkscape:zoom="1.1175334"
   inkscape:cx="250.7755"
   inkscape:cy="250.7755"
   inkscape:window-x="67"
   inkscape:window-y="27"
   inkscape:window-maximized="1"
   inkscape:current-layer="Layer_1" />
<polygon
   style="fill:#F8B64C;"
   points="188.054,218.384 252.837,283.167 317.621,218.384 "
   id="polygon216" />
<rect
   x="132.674"
   y="143.151"
   style="fill:#40596B;"
   width="239.282"
   height="267.494"
   id="rect218" />
<path
   style="fill:#ffc68d;fill-opacity:1"
   d="M329.115,392.882c-51.2,6.269-101.355,6.269-152.555,0c7.314-44.931,7.314-89.861,0-135.837  c51.2-6.269,101.355-6.269,152.555,0C321.8,303.02,321.8,347.951,329.115,392.882z"
   id="path220" />
<path
   style="fill:#ffe2c5;fill-opacity:1"
   d="M146.258,117.029v101.355c0,58.514,48.065,106.58,106.58,106.58s106.58-48.065,106.58-106.58V117.029  L146.258,117.029L146.258,117.029z"
   id="path222" />
<path
   style="fill:#40596B;"
   d="M252.837,24.033c-65.829,0-120.163,53.29-120.163,119.118H373  C373,77.322,318.666,24.033,252.837,24.033z"
   id="path224" />
<path
   style="fill:#CDD6E0;"
   d="M394.943,148.376h-14.629c0-74.188-57.469-134.792-127.478-134.792S125.36,74.188,125.36,148.376  h-14.629C110.731,65.829,174.47,0,252.837,0S394.943,66.873,394.943,148.376z"
   id="path226" />
<path
   style="fill:#F2F2F2;"
   d="M341.654,290.482H272.69v-13.584h68.963c12.539,0,22.988-10.449,22.988-22.988v-26.122h14.629v26.122  C379.27,273.763,362.551,290.482,341.654,290.482z"
   id="path228" />
<path
   style="fill:#ACB3BA;"
   d="M268.511,266.449h-31.347c-8.359,0-14.629,7.314-14.629,14.629v3.135  c0,8.359,7.314,14.629,14.629,14.629h31.347c8.359,0,14.629-7.314,14.629-14.629v-3.135  C283.139,273.763,276.87,266.449,268.511,266.449z"
   id="path230" />
<g
   id="g236">
	<path
   style="fill:#CDD6E0;"
   d="M412.707,159.869h-8.359v53.29h8.359c6.269,0,10.449-4.18,10.449-10.449v-32.392   C423.156,164.049,417.931,159.869,412.707,159.869z"
   id="path232" />
	<path
   style="fill:#CDD6E0;"
   d="M82.519,169.273v32.392c0,6.269,4.18,10.449,10.449,10.449h8.359v-53.29h-8.359   C87.743,159.869,82.519,164.049,82.519,169.273z"
   id="path234" />
</g>
<g
   id="g242">
	<path
   style="fill:#FF7058;"
   d="M383.449,143.151h-24.033v84.637h24.033c11.494,0,20.898-9.404,20.898-20.898v-42.841   C404.347,152.555,394.943,143.151,383.449,143.151z"
   id="path238" />
	<path
   style="fill:#FF7058;"
   d="M101.327,164.049v42.841c0,11.494,9.404,20.898,20.898,20.898h24.033v-84.637h-24.033   C110.731,143.151,101.327,152.555,101.327,164.049z"
   id="path240" />
</g>
<g
   id="g248">
	<polygon
   style="fill:#ffe2c5;fill-opacity:1"
   points="312.396,143.151 312.396,110.759 300.902,143.151  "
   id="polygon244" />
	<polygon
   style="fill:#ffe2c5;fill-opacity:1"
   points="230.894,143.151 230.894,119.118 217.311,143.151  "
   id="polygon246" />
</g>
<polygon
   style="fill:#ffc68d;fill-opacity:1"
   points="252.837,427.363 324.935,355.265 180.739,355.265 "
   id="polygon250"
   transform="translate(0,2)" />
<path
   style="fill:#FF7058;"
   d="M334.339,355.265H323.89l-72.098,72.098l-72.098-72.098h-10.449  c-70.008,0-126.433,56.424-126.433,126.433v19.853h415.869v-19.853C460.772,411.69,404.347,355.265,334.339,355.265z"
   id="path252" />
<g
   id="g254">
</g>
<g
   id="g256">
</g>
<g
   id="g258">
</g>
<g
   id="g260">
</g>
<g
   id="g262">
</g>
<g
   id="g264">
</g>
<g
   id="g266">
</g>
<g
   id="g268">
</g>
<g
   id="g270">
</g>
<g
   id="g272">
</g>
<g
   id="g274">
</g>
<g
   id="g276">
</g>
<g
   id="g278">
</g>
<g
   id="g280">
</g>
<g
   id="g282">
</g>
</svg>