<svg xmlns="http://www.w3.org/2000/svg" width="1920" height="1920" viewBox="0 0 1920 1920">
  <defs>
    <style>
      .cls-1 {
        fill-rule: evenodd;
      }
    </style>
  </defs>
  <path class="cls-1" d="M746.993,1197.45c-9.486-9.74-17.38-20.77-25.727-31.44-6.251-7.99-11.126-16.81-16.649-25.25-7.2-10.99-12.768-22.87-18.794-34.5-2.228-4.3-1.752-4.82,3.756-4.82H1153.29q38.235,0,76.45.03c1.6,0,3.29-.5,5.06.56-4.35,11.03-10.63,21.05-16.09,31.48-3.81,7.29-8.73,13.84-13.03,20.8-9.5,15.39-21.21,29.09-33.05,42.67-10.44,11.98-22.19,22.63-34.1,33.07-8.54,7.48-17.08,15.15-26.54,21.3-19.22,12.49-38.71,24.55-59.44,34.55-17.07,8.24-34.72,14.75-52.48,21.17-12.414,4.48-25.178,7.67-37.806,11.33-5.506,1.6-11-1.22-16.34-2.66a486.611,486.611,0,0,1-59.759-20.51,433.865,433.865,0,0,1-85.44-48.65,375.193,375.193,0,0,1-46.59-40.98c-1.462-1.53-1.982-3.85-4.083-4.83Q748.522,1199.105,746.993,1197.45Zm411.3-71.49c-1.46-.2-2.38-0.37-3.31-0.45q-34.335-2.85-68.67-5.68c-31.52-2.57-63.04-5.26-94.578-7.62-13.1-.98-26.186-3.45-39.315-2.5-26.891,1.95-53.73,4.61-80.593,6.95q-53.223,4.635-106.456,9.18c-3.1.26-3.37,1-1.6,3.46,5.651,7.84,11.5,15.51,17.772,22.86,41.962,49.15,94.757,81.89,155.532,102.45,22.615,7.65,22.689,7.63,45.28.03,59.954-20.18,112.254-52.18,154.084-100.25A291.576,291.576,0,0,0,1158.29,1125.96ZM815.451,748.743c-37.246,0-73.99,0-110.734,0-4.332,0-9.59,1.46-12.741-.481-3.356-2.068-.218-7.609-0.9-11.623-1.809-10.568-1.473-21.388-3.061-31.931-2.238-14.867-3.082-29.973-7.069-44.567-0.674-2.469.708-3.1,2.972-3.167,15.087-.447,29.963-2.746,44.849-5.06,22.518-3.5,44.874-7.863,67.157-12.574,20.211-4.274,40.34-8.935,60.475-13.554,14.075-3.23,28.132-6.544,42.136-10.06,17.911-4.5,35.825-9.007,53.6-13.991,6.18-1.732,11.778-.37,17.422,1.177,31.354,8.594,62.964,16.163,94.614,23.527,32.06,7.46,64.24,14.433,96.62,20.434,18.07,3.348,36.21,6.224,54.4,8.767a182.368,182.368,0,0,0,19.35,1.258c2.76,0.089,3.59,1.168,3.08,3.644-3.11,15.128-4.69,30.486-6.75,45.765-1.15,8.527-1.49,17.166-2.16,25.756-0.38,4.8-.87,9.594-0.94,14.4-0.06,3.27-2.27,2.263-3.81,2.248-18.65-.175-37.3.158-55.95-0.3-19.32-.479-38.65-0.113-57.98-0.116h-5.22c10.57-2.847,20-3.84,29.28-5.517,11.95-2.157,23.93-4.112,35.9-6.057,1.96-.317,2.88-1,3.03-3.1,0.65-8.637,1.41-17.265,2.22-25.888,0.29-3.027-2.1-2.564-3.64-2.819-19.36-3.2-38.59-6.993-57.8-10.954-50.6-10.433-100.76-22.718-150.809-35.512a14.867,14.867,0,0,0-7.774.047c-61.963,15.855-124.093,30.989-186.967,42.863-6.857,1.3-13.755,2.383-20.645,3.494-2.48.4-3.55,1.167-3.179,4.169,0.98,7.928,1.563,15.914,2,23.895,0.145,2.662,1.368,3.325,3.595,3.7,19.838,3.325,39.661,6.74,59.5,10.038A15.3,15.3,0,0,1,815.451,748.743Zm116-120.433c8.513,0.236,16.416-2.946,24.626-4.4,0.983-.175,1.2-0.953,1.191-1.858-0.02-2.586-.007-5.172-0.007-8.49-9.117,5.245-17.516,10.076-25.906,14.887l0.237,0.042Zm-30.388,30.014c1.982,0.873,3.6.219,5.3-.309q21.59-6.677,43.216-13.239c7.938-2.424,7.947-2.418,7.673-10.568a6.023,6.023,0,0,0-.59-1.533ZM1584.09,837.849c-2.57,7.786-8.39,13.111-13.32,18.378-5.96,6.369-12.12,12.9-19.71,17.82-8.68,5.625-17.33,11.021-26.98,14.938-17.7,7.184-36.07,9.259-54.93,8.582-20.67-.741-40.41-5.67-59.84-12.543-26.74-9.462-51.33-23.034-75.07-38.3-7.19-4.629-14.02-9.839-20.89-14.944-1.2-.891-2.09-1.423-4.03-0.592,39.7,50.372,93.02,77.85,153.55,94.04-10.11,7.25-21.69,11.038-33.29,14.961-15.03,5.081-30.58,6.112-46.07,5.309a103.982,103.982,0,0,1-34.93-8.49c-24.82-10.5-46.31-25.946-65.68-44.52a34.419,34.419,0,0,0-3.42-2.718c-7.88-5.882-11.2-12.992-10.97-23.539,0.82-36.812.32-73.654,0.32-110.485,0-7-.01-7-6.73-7-6.83,0-13.67-.146-20.49.072-2.69.086-3.45-1.293-3.27-3.3,0.76-8.533,1.78-17.043,2.54-25.575,0.2-2.233,1.06-3.286,3.15-4.241,15.51-7.08,31.61-9.621,48.45-6.657a8.484,8.484,0,0,1,6.54,4.557c16.71,30.44,41.03,53.473,70.35,71.558,28.09,17.324,58.54,29,90.33,37.222a466.083,466.083,0,0,0,61.25,11.551C1541.84,836.433,1562.73,838.1,1584.09,837.849ZM510.916,884.627c-13.183,4.165-26.411,8.166-40.029,10.706a209.662,209.662,0,0,1-36.954,2.411,3.179,3.179,0,0,0-3,.1l-13-2.016L408.7,894.1q-7.35-2.241-14.7-4.487c-6.2-3.346-12.55-6.449-18.573-10.091a114.559,114.559,0,0,1-29.538-26.312,152.181,152.181,0,0,1-11.516-15.414c4.717,0,8.956.1,13.19-.017a526.132,526.132,0,0,0,68.084-6.584A435.047,435.047,0,0,0,493.3,811.744c27.634-9.818,53.563-23.065,76.849-40.966,18.163-13.962,34.877-30,45.44-50.33,6.905-13.291,16.606-11.67,27.082-10.473,11.594,1.324,22.555,5.25,32.961,10.685,2.361,1.233,3.241,2.456,3.328,5.157,0.208,6.449.758,12.9,1.511,19.313,0.346,2.949-.464,3.736-3.341,3.669-7.327-.17-14.672.2-21.985-0.16-3.827-.187-4.574.959-4.561,4.625,0.138,40.334.048,80.67,0.138,121.006a8.9,8.9,0,0,1-2.878,6.969c-14.479,14.386-29.774,27.724-46.885,38.977-14.77,9.713-30.336,17.708-47.443,22.08-10.494,2.681-21.412,3.251-32.3,3.267-16.508.024-32.118-4.132-47.139-10.433-6.014-2.522-12.241-5.058-17.958-9.927,31.736-8.187,61.556-19.707,88.982-36.9l3.057-1.884,1.858-1.14a14.725,14.725,0,0,0,4.956-3.335,169.549,169.549,0,0,0,29.085-22.749,5.31,5.31,0,0,0,2.6-2.452,26.147,26.147,0,0,0,6.188-6.137,6.522,6.522,0,0,0,2.774-2.866,0.4,0.4,0,0,0,.445-0.5,12.364,12.364,0,0,0,3.964-4.432,7.078,7.078,0,0,0,2.806-3.231c3.1-3.282,6.123-6.615,8.205-10.676l1.6-.73c-0.1-.316-0.2-0.634-0.295-0.951l-0.412.354,0.751,0.574c-0.765-.528-1.518-0.745-2.233.082L599.5,836.6a43.816,43.816,0,0,0-8.617,6.044,9.9,9.9,0,0,0-4.407,2.952,0.4,0.4,0,0,0-.579.318l-4.281,2.867a12.631,12.631,0,0,0-4.709,3.007,4.354,4.354,0,0,0-2.75,1.66L555.648,864.1l-2.761,1.621A7.926,7.926,0,0,0,548.9,867.8l-1.981,1.022-32,14.161-3.369,1.259-0.133.107-0.333,0Zm991.4,39.455c10.94-2.341,21.61-4.585,31.9-8.173,9.81-3.42,19.64-6.841,28.42-12.617a9.348,9.348,0,0,1,5.99-1.508c18.31,1.353,36.63.783,54.92-.121a289.657,289.657,0,0,0,51.79-7.1,3.494,3.494,0,0,0,2.01-1.463c-30.71.664-61.27,0.252-92.25-5.784,7.89-7.86,14.7-15.617,20.01-24.537,1.16-1.955,2.6-2.131,4.44-2a373.085,373.085,0,0,0,53.91-.112c19.71-1.407,39.2-3.956,58.41-9.347a164.219,164.219,0,0,0,44.07-19.288c4.89-3.1,8.86-7.083,12.97-11,0.9-.851,1.62-2.744,3.04-1.936,0.84,0.48,1.16,2.284,1.28,3.535a87.641,87.641,0,0,1-1.24,23.756c-3.61,20.48-13.28,37.577-28.34,51.854-8.7,8.251-18.65,14.451-29.15,20.08-14.22,7.623-29.56,11.988-45.01,15.828-10.27,2.549-20.93,3.451-31.34,5.454-9.43,1.815-18.98.9-28.46,1.723-10.49.907-21.03,0.235-31.59-.474a276.447,276.447,0,0,1-30.76-3.35c-14.59-2.646-29.32-4.942-43.5-9.711C1510.17,926.567,1506.28,925.837,1502.32,924.082ZM242,893.62c10.02,3.212,20.4,4.819,30.769,6.029a413.344,413.344,0,0,0,56.679,2.767c13.5-.288,26.182-0.279,38.892,6.944,14.494,8.236,31.354,11.284,48.557,14.77a388.613,388.613,0,0,1-54.919,12.821c-8.226,1.264-16.538,2.784-24.73,3.45-10.018.813-20.193,1.088-30.312,1.168-10.374.083-20.832,0.679-31.074-.925-17.662-2.766-35.369-5.072-52.581-10.658-14.122-4.584-27.866-9.764-40.37-17.593a103.264,103.264,0,0,1-34.047-34.261A95.882,95.882,0,0,1,136.3,843.538c-1.3-7.917-.246-16.224-0.246-24.36,2.359-.862,2.977,1.258,3.992,2.266,12.416,12.326,27.428,19.809,43.779,25.761a220.046,220.046,0,0,0,48.41,11.316c24.38,3.029,48.961,4.259,73.55,2.371,4.732-.363,7.756.5,10.29,5.078,4.328,7.814,10.394,14.46,17.915,21.406-31.277,4.726-61.468,7.456-91.979,4.713a9.613,9.613,0,0,0-6.311.242ZM1458.67,959.578c4.51-4.144,8.77-8,12.95-11.936,1.31-1.232,2.35-.475,3.58.049,23.59,10.059,48.39,15.835,73.55,19.918,17.29,2.8,34.77,4.268,52.28,5.393,21.14,1.359,42.26.842,63.39,0.625,12.23-.125,24.45-1.578,37.07-2.462,0.55,5.659-4,8.664-6.54,12.458a64.817,64.817,0,0,1-19.26,18.237,133.828,133.828,0,0,1-36.19,15.98c-24.93,6.89-50.3,7.64-75.89,6.84-17.12-.53-33.8-3.58-50.52-7.12a342.663,342.663,0,0,1-52.78-16.09,355.068,355.068,0,0,1-45.81-21.411c-2.71-1.517-5.61-2.828-8.4-5.795a90.811,90.811,0,0,0,31.71-5.351,7.117,7.117,0,0,1,4.85.434c22.46,8.873,45.84,14.448,69.61,18.182,10.61,1.667,21.34,3.313,32.24,2.9C1514.99,982.765,1486.09,973.6,1458.67,959.578Zm-998.627-.03c-9.871,5.431-20.292,8.985-30.322,13.426-10.7,4.739-22.131,7.082-32.962,11.318-4.476,1.751-9.41,2.337-14.139,3.436-1.068.249-2.621,0.053-2.3,1.79,0.31,1.7,1.805,1.074,2.847.957,17.128-1.929,34.205-4.212,51-8.167,14.278-3.362,28.455-7.07,41.895-13.137,2.591-1.169,5.182-.17,7.652.65,9.382,3.119,19.039,4.526,29.107,5.257-9.077,4.866-18.055,9.928-27.254,14.553a329.578,329.578,0,0,1-39.667,16.5,380.815,380.815,0,0,1-42.609,11.82c-27.73,6.16-55.664,7.81-83.93,6.54a169.782,169.782,0,0,1-56.9-12.22c-13.992-5.71-26.647-13.9-36.36-25.85a125.751,125.751,0,0,1-8.552-12.325c-1.127-1.785-.737-3.347,2.022-3.03,29.788,3.413,59.722,3.558,89.586,2.5,30.717-1.09,61.293-4.634,91.221-12.01,14.225-3.507,28.556-6.975,41.784-13.708,2.134-1.086,4.181-1.383,6.375,1.141C451.856,952.8,455.993,955.907,460.043,959.548Zm-80.416,30.845-0.216-1.658-10.213,2.39A24.851,24.851,0,0,0,379.627,990.393Zm477.157-47.568c1.936-32.162.987-63.27,0.98-94.361,0-4.975,1.329-6.241,6.031-5.81a110,110,0,0,0,14.48.036c2.7-.111,3.464.441,3.446,3.452q-0.448,76.692-.555,153.387a94.172,94.172,0,0,0,.576,10.471c0.252,2.29-.51,2.85-2.683,2.82-7.494-.11-14.991-0.09-22.486,0-1.817.02-2.474-.66-3.079-2.34-5.83-16.226-11.843-32.384-17.694-48.6-5.51-15.268-10.873-30.588-16.366-45.861-0.286-.793-0.241-2.068-2.143-2.29,1.37,19.475-1.144,38.813-.064,58.225,0.684,12.3.4,24.651,0.6,36.975,0.048,2.87-.941,4.27-4.057,4.14q-8.978-.375-17.97-0.3c-2.368.03-2.2-1.28-2.2-2.85q0.023-81.214-.085-162.421c-0.01-3.886.93-5.119,4.823-4.948,6.311,0.277,12.648.153,18.966-.046,3.374-.106,4.487,1.664,5.482,4.519q16.3,46.785,32.829,93.489C855.77,940.932,856.02,941.315,856.784,942.825ZM493.93,1043.54c10.91-3.45,21.513-7.66,32.1-12.02a282.258,282.258,0,0,0,35.571-17.57c4.043-2.38,8.149-4.65,12.171-7.07a10.225,10.225,0,0,1,6.076-1.41,125.231,125.231,0,0,0,24.285-1.3,94.7,94.7,0,0,1-17.507,18.85c-24.941,20.81-53.726,34.75-83.6,46.83-15.956,6.45-32.148,12.03-49.037,15.33a196.817,196.817,0,0,1-29.6,3.1,157.429,157.429,0,0,1-57.14-8.3,161.6,161.6,0,0,1-43.927-22.41,31.434,31.434,0,0,1-3-2.82c2.376-2.14,4.771,0,7.09.05,27.923,0.62,55.486-1.41,82.922-7.48a414.335,414.335,0,0,0,79.136-26.52,265.954,265.954,0,0,0,25.345-13.05c6.723-3.9,13.762-7.29,20.3-11.572,1.523-1,3.148-.194,4.656.624,3.751,2.035,7.839,3.192,12.846,4.668-18.487,16.53-39.332,28.45-60.406,40.02-2.71,1.23-5.42,2.46-8.929,4.05C487.768,1046.3,490.8,1044.68,493.93,1043.54Zm917.7-10.64c-15.87-9.09-31.08-19.12-44.96-31.28,0.5-.35.72-0.53,0.96-0.69,11.17-7.406,20.27-2.352,30.21,3.73,17.58,10.76,36.5,18.99,55.79,26.33a378.956,378.956,0,0,0,77,20.62c11.04,1.71,22.21,3.12,33.46,3.16,11.31,0.05,22.63.39,34.89-.7-6.64,6.35-13.83,10.42-20.98,14.45a143.5,143.5,0,0,1-41.64,15.79,194.516,194.516,0,0,1-27.21,3.66,217.26,217.26,0,0,1-32.09-.5,149.149,149.149,0,0,1-35.69-7.83c-21.33-7.32-42.38-15.42-62.38-25.91-20.08-10.53-39.39-22.28-55.46-38.62a82.994,82.994,0,0,1-9.27-11.39c9.81,1.93,18.86,1.36,27.82,1.95,5.43,0.36,9.73,5.24,14.59,7.97,15.42,8.66,31.14,16.63,47.81,22.62a24.437,24.437,0,0,0,2.84.67,136.741,136.741,0,0,0,30.26,9.04Q1424.605,1039.43,1411.63,1032.9Zm28.05,14.38a0.818,0.818,0,0,0-.28-0.25,1.311,1.311,0,0,0-.44.01,2.435,2.435,0,0,0,.36.47A1.307,1.307,0,0,0,1439.68,1047.28ZM735.345,994.159c-5.325,0-10.654.126-15.973-.047-3.269-.106-5.084.492-5.68,4.369-2.346,15.249-2.5,15.229-17.715,15.229-3.5-.01-6.993-0.05-10.488-0.02-2.206.02-3.13-1.07-2.557-3.11,3.349-11.9,5.419-24.075,8.017-36.139,3.427-15.918,7.837-31.642,10.75-47.646,2.46-13.515,5.7-26.865,8.6-40.253,1.787-8.244,4.683-16.417,5.918-24.819,0.906-6.173,3.515-11.96,3.624-18.245,0.035-2,1.4-2.632,2.968-2.6,8.488,0.17,16.974.485,25.462,0.676,2.132,0.049,2.2,1.493,2.52,3q10.446,48.687,20.95,97.362c4.872,22.553,8.842,45.307,14.931,67.592,0.838,3.07.43,4.47-3.276,4.28-5.646-.29-11.327-0.2-16.979.04-4.308.19-6.913-1.18-7.544-5.74-0.338-2.45-1.577-4.8-1.763-7.24-0.383-5.059-2.423-7.19-7.8-6.527-4.592.566-9.309,0.117-13.971,0.117v-0.281Zm-0.377-91.648c-2.7,8.424-4.069,16.345-5.655,24.239-2.614,13-5.552,25.945-8.47,38.886-0.746,3.308.008,4.39,3.592,4.138,5.129-.361,10.3-0.082,15.46-0.078,10.04,0.008,10.04.008,8.113-9.913-0.064-.326-0.059-0.667-0.135-0.989C743.489,940.344,740.888,921.483,734.968,902.511Zm152.789,26.167c0.007-14.5-.178-28.992.053-43.483,0.3-18.879,8.231-34.006,25.714-41.5,20.82-8.925,47.164-3.9,58.162,21.338,2.056,4.717,4.054,9.466,4.679,14.646,0.362,3-.617,4.759-3.99,4.738-6.494-.041-12.992-0.058-19.481.155-2.977.1-3.067-1.606-3.217-3.752-0.589-8.423-9.587-17.26-20.32-16.764-6.24.288-10.62,4-12.829,10.14-3.386,9.422-3.664,19.19-3.371,28.985,0.085,2.851-.551,5.634-0.269,8.439,1.9,18.944.767,37.907,0.58,56.873-0.109,11.137,4.435,17.761,12.929,20.72,10.475,3.649,22.559-4.05,23.375-15.133,0.391-5.3.007-10.658,0.222-15.979,0.1-2.577-1.156-3.211-3.272-3.209-3.163,0-6.33-.044-9.489.09-2.043.086-2.687-.41-2.8-2.715-0.3-6.165.543-12.23,0.882-18.339,0.088-1.594.73-1.851,2.117-1.954,11.948-.891,23.913-0.39,35.868-0.591,2.308-.039,2.994.889,2.714,2.933-1.683,12.313-.046,24.636.1,36.94,0.244,20.833-16.289,42.3-43.1,43.474-15.414.68-27.939-5.29-37.2-17.406a40.228,40.228,0,0,1-8-24.163C887.591,958.337,887.75,943.506,887.757,928.678ZM1161.75,962.15c3.82,0,8.18-1.156,11.32.3,3.64,1.686.97,6.517,1.75,9.926,3.55,15.548,17.32,20.861,29.62,11.167,1.82-1.43,5.64-.643,5.51-4.064-0.26-7.343,1.94-15.186-4.23-21.472q-8.73-8.892-17.07-18.155c-10.41-11.575-21.55-22.529-31.03-34.888-11.64-15.157-7.96-40.716,6.66-53.361,8.71-7.527,18.44-12.227,29.79-11.642,12.6,0.649,23.44,5.452,30.97,16.544,6.08,8.958,8.79,18.731,9.44,29.325,0.2,3.235-1.03,4.409-4.26,4.313-5.99-.179-12-0.26-17.97.023-3.22.151-3.97-.943-3.82-3.931a17.432,17.432,0,0,0-6.77-15.4c-6.13-4.861-15.14-4.654-20.31.64-5.67,5.8-6.7,15.859-1.14,21.21,13.26,12.757,24.72,27.159,37.48,40.374,5.93,6.147,12.93,12.373,15.7,20.726a52.23,52.23,0,0,1,.94,30.541c-7.75,28.453-45.11,42.673-71.23,19.443-11.2-9.962-14-22.84-15.17-36.631-0.34-4.009,1.34-6.224,5.86-5.451a78.808,78.808,0,0,0,7.95.592C1161.74,962.237,1161.75,962.193,1161.75,962.15Zm66.92-73.866a57.54,57.54,0,0,0-15.04-.009A56.186,56.186,0,0,0,1228.67,888.284ZM981.653,927.208c0-26.834.059-53.668-.074-80.5-0.017-3.363.764-4.508,4.312-4.657,19.169-.808,38.3,1.114,57.459.559,5.11-.148,10.16-1.246,15.38-0.334,2.83,0.5,4.11.98,3.98,4.1-0.22,5.659-.23,11.339.01,17,0.12,2.991-1,3.534-3.72,3.512-15.49-.124-30.99.05-46.48-0.149-3.84-.05-5.11.882-5.04,4.96,0.2,12.463.94,24.938-.12,37.4-0.25,2.93.35,4.431,4.21,4.959,8.85,1.213,17.6.222,26.38,0.113,4.47-.056,6.63.679,5.97,5.889a66.646,66.646,0,0,0,.14,13.974c0.29,3.262-.85,3.86-3.81,3.836-9.33-.076-18.66.343-27.98,0.149-3.86-.079-4.9,1.149-4.75,4.854,0.59,14.141,1.68,28.277,1.09,42.446-0.08,2.048.6,2.59,2.54,2.4,15.49-1.472,30.97.826,46.44,0.07,3.93-.191,5.41.835,5.22,4.819-0.25,5.49-.26,11-0.1,16.5,0.07,2.7-.92,3.45-3.47,3.35-23.64-.97-47.28.83-70.919,0.39-6.529-.12-6.637-0.3-6.638-6.64q0-39.5,0-79h-0.029Zm57.137-63.2c0.01,0.168.01,0.335,0.01,0.5h16.93c0-.168,0-0.335-0.01-0.5h-16.93Zm30.96,63.773c0-26.824.08-53.649-.08-80.472-0.02-3.545.62-4.793,4.46-4.849,6.33-.093,12.63-0.527,18.95.257,1.9,0.236,3.03.549,2.91,2.916-1.12,21.816.45,43.634-.04,65.462-0.45,19.793-.15,39.6-0.22,59.4-0.02,4.485-.29,8.97-0.32,13.456-0.02,2.985,1.18,4.206,4.59,4.131,12.81-.282,25.64.028,38.46-0.25,3.95-.085,5.39,1.109,5.26,4.993-0.2,5.492-.26,11-0.02,16.5,0.12,2.95-.95,3.53-3.66,3.51-22.16-.08-44.31-0.11-66.46.08-3.77.03-4.25-1.42-4.24-4.65,0.11-26.83.07-53.656,0.07-80.481h0.34ZM619.909,1061.87c10.032-3.13,18.147-9.61,26.672-15.36,1.063-.72,1.827-2.21,3.359-1.45,1.566,0.78.678,2.38,0.688,3.55,0.088,9.82.009,19.64,0.081,29.46,0.017,2.3-.687,3.63-2.654,5.22-10.232,8.24-21.336,14.96-33.918,18.63-21.808,6.36-43.448,5.74-64.343-3.85-6.716-3.09-13.042-7.01-19.634-10.38a1.44,1.44,0,0,1-1-1.81,1.676,1.676,0,0,1,1.484-1.47c11.6-2.16,22.263-7.04,32.452-12.61,13.309-7.28,26.45-15,37.3-25.94a66.617,66.617,0,0,0,5.842-6.29c3.952-5.27,7.743-5.72,13.156-2.58,4.251,2.47,9.292,2.97,14.276,4.08-3.418,7.23-9.892,11.8-14.808,17.66q-2.377,2.2-4.754,4.43c-0.364.48-1.7,0.63-.849,1.5,0.532,0.55,1.386.05,1.844-.65A9.169,9.169,0,0,0,619.909,1061.87Zm648.921-18.89a90.977,90.977,0,0,0,26.21,16.91c3.08,1.32,6.13,2.7,9.94,4.39-1.17-4.09-3.98-5.9-6.09-7.83-2.07-1.89-3.84-4.04-5.88-5.92-2.66-2.43-6.13-5.75-5.85-8.56,0.31-3.12,5.6-2.09,8.51-3.45a2.547,2.547,0,0,1,.9-0.4c4.1-.05,7.42-5.85,11.15-3.1,3.17,2.34,5.77,6.01,8.71,8.98,11.1,11.19,23.95,20.02,37.9,27.26,10.76,5.59,21.77,10.52,33.58,13.48,0.5,0.13,1.23-.67,1.48.41,0.24,1.05-.49,1.22-1.21,1.73-5.78,4.1-12.05,7.23-18.4,10.36-14.72,7.26-30.28,9.49-46.37,8.4-20.44-1.38-37.9-9.99-53.49-22.94-1.59-1.32-1.02-2.63-1.03-3.87C1268.78,1067.24,1268.83,1055.66,1268.83,1042.98Zm-722.6-68.96c19.5-9.875,38.323-20.644,55.617-33.777,17.472-13.269,33.975-27.69,48.833-44.49v12.165c0,17.162-.07,34.324.058,51.485,0.023,3.154-.991,4.9-3.661,6.782-10.155,7.14-21.051,13.039-32.9,16.2A97.792,97.792,0,0,1,575.2,984.8c-8.869-1.23-16.662-4.886-24.925-7.482A6.341,6.341,0,0,1,546.229,974.02Zm826.591,0.395c-5.62,3.736-11.53,5.357-17.3,7.327a87.814,87.814,0,0,1-70.71-7.332c-4.67-2.656-9.21-5.476-13.61-8.583-2.11-1.487-2.49-2.567-2.48-4.939,0.16-20.831.1-41.663,0.08-62.495a35.717,35.717,0,0,0-.55-3.856C1297.49,929.339,1332.9,954.275,1372.82,974.415ZM645.535,995.509c-3.97,4.292-1.587,9.341-1.571,14.071a36.415,36.415,0,0,0,1.062,6.79c1.38,6.98,1.327,7.32-5.49,6.27-8.657-1.32-16.884-4.43-25.2-7.1a2.521,2.521,0,0,1-1.553-1.64c-0.054-1.19,1.261-.5,1.888-0.89,8.1-5.01,17.069-8.61,24.284-15.047C641.639,998.464,642.883,995.1,645.535,995.509Zm631.085,0.429c8.79,7.432,19.03,12.532,29.52,18.122a105.971,105.971,0,0,1-30.04,8.7c-3.33.48-3.58-1.02-3.08-3.84,1.36-7.69,5.12-15.35.64-23.212C1274.72,994.9,1275.64,995.751,1276.62,995.938ZM1076.57,743.7c-9.94.552-5.97-10.1-11.81-13.467,0,3.678-.05,7.029.02,10.377,0.04,1.815.04,3.148-2.49,3.155s-2.52-1.359-2.52-3.153c0.04-8.3.1-16.6-.04-24.894-0.04-2.422.72-3.317,3.09-3.053,1.14,0.128,2.32-.054,3.48-0.032,3.51,0.063,7.52-.092,8.88,3.887,1.47,4.249,2.03,8.973-2,12.394-1.73,1.47-1.44,2.561-.74,4.222C1073.85,736.485,1075.1,739.9,1076.57,743.7Zm-11.89-22.5c0.33,2.031-1.18,4.864,2.99,4.652,3.24-.164,3.73-1.828,3.83-4.421,0.13-3.254-1.7-4.406-4.52-4.461C1063.51,716.9,1065.17,719.683,1064.68,721.2Zm-174.474,22c-5.127,1.969-5.749-1.469-6.839-4.454-1.014-2.776-2.212-5.485-3.634-8.971-1.926,3.787-.726,7.058-1.06,10.152-0.179,1.656.77,3.706-2.358,3.83-3.06.121-2.584-1.768-2.586-3.542-0.006-8,.124-16-0.055-24-0.064-2.836.8-3.923,3.611-3.577a36.387,36.387,0,0,0,3.992.019c3.292,0.038,6.64.474,7.863,4.017,1.261,3.654,2.044,8.132-1,10.841-3.09,2.746-2.328,4.858-1.08,7.688C888.19,737.78,889.127,740.438,890.206,743.2Zm-11.5-21.938c-0.2,2.67-.674,4.763,2.913,4.59,3.507-.169,3.365-2.28,3.554-4.68,0.252-3.206-1.689-4.1-4.25-4.152C876.965,716.936,879.33,720.16,878.708,721.263Zm38.872,7.048c0,2.485.108,4.976-.022,7.454-0.263,5-3.446,8.094-8.2,8.143-4.323.043-7.561-2.992-7.782-7.913-0.243-5.452-.24-10.936.044-16.385a7.933,7.933,0,0,1,8.3-7.527c4.1,0.184,7.257,3.311,7.565,7.782,0.193,2.8.036,5.63,0.036,8.447h0.062Zm-4.815-.117h-0.033c0-2.812.056-5.625-.021-8.435a2.853,2.853,0,0,0-2.762-2.957c-1.939-.217-3.46.761-3.562,2.629-0.315,5.756-.769,11.536.125,17.286a2.886,2.886,0,0,0,3.107,2.624,3.1,3.1,0,0,0,3.125-3.206C912.826,733.491,912.765,730.841,912.765,728.194ZM1049,728.572c0,2.486.04,4.973-.01,7.457-0.09,4.49-2.5,7.073-6.83,7.763s-7.9-1.6-8.72-6.145a65.349,65.349,0,0,1-.19-18.788c0.46-4.263,4.61-7.074,8.54-6.766,4.34,0.341,7.08,3.554,7.18,8.526,0.05,2.65,0,5.3,0,7.953H1049Zm-4.59-.256h-0.02c0-2.81.09-5.624-.04-8.429a3.241,3.241,0,0,0-6.47-.12c-0.1,5.46-.1,10.926.04,16.384a3.045,3.045,0,0,0,3.16,3.186c2.11-.049,3.27-1.443,3.31-3.571C1044.45,733.284,1044.41,730.8,1044.41,728.316Zm-89.654-.463q-0.009-5.478-.006-10.956c0-.5.037-1-0.006-1.494-0.149-1.678.069-3.119,2.27-2.732,4.164,0.732,8.824-1.811,12.461,1.56,0.814,0.754.32,2.987-2,2.862a11.676,11.676,0,0,0-2.98.054c-1.872.393-5.206-1.573-4.852,2.684,0.223,2.678-1.607,6.947,4.109,5.891,1.618-.3,2.376.323,2.366,2.152-0.01,1.936-1.057,2.289-2.519,2.08-5.273-.757-3.533,3.055-3.885,5.691-0.525,3.915,2.107,3.187,4.33,3.22,1.326,0.02,2.655.068,3.976,0.176,1.648,0.135,1.56,1.377,1.576,2.57,0.015,1.16-.377,1.934-1.649,1.949q-5.724.068-11.446,0.1c-2.116.008-1.709-1.626-1.721-2.857C954.735,736.485,954.762,732.169,954.756,727.853ZM846.707,727.7a84.367,84.367,0,0,1,.082-8.958c0.217-2.022-1.537-4.919,1.39-5.977,4.73-1.71,12.007.328,13.584,3.387,3.316,6.432.081,13.15-6.974,13.853-2.961.3-3.6,1.357-3.262,4.04,0.287,2.292.06,4.644,0.146,6.966,0.067,1.8-.469,2.671-2.5,2.744-2.1.076-2.48-.8-2.447-2.6,0.083-4.482.027-8.967,0.027-13.451h-0.047Zm11.225-6.247c0.289-2.356-.482-4.356-3.909-4.428-3.051-.065-2.647,2.135-2.33,3.758,0.35,1.793-1.961,5.042,2.43,5.051C856.858,725.838,858.182,724.76,857.932,721.451ZM980.06,729.69c0.067-4.776-.512-8.293.547-11.7,1.1-3.541,3.527-5.581,7.279-5.708a7.534,7.534,0,0,1,7.54,4.688c0.516,1.117,1.309,2.894-.129,3.526-1.272.558-3.413,1.123-4.251-1.082-0.747-1.966-1.817-3.32-4.051-2.443-2.039.8-2.139,2.7-2.136,4.608,0.006,4.322-.076,8.644-0.12,12.966-0.022,2.112.291,4.077,2.73,4.708,1.973,0.511,3.012-.438,3.679-2.321,0.77-2.174,2.918-1.7,4.2-1.092,1.433,0.674.638,2.507,0.085,3.532a7.954,7.954,0,0,1-8.647,4.5c-4.106-.553-6.091-3.327-6.646-7.015A42.009,42.009,0,0,1,980.06,729.69Zm-46.627.836c0-2.821-.034-5.643.01-8.464,0.041-2.667.6-5.574-3.777-4.961-2.049.287-1.746-1.407-1.86-2.7-0.163-1.843,1.092-1.667,2.243-1.668,3.816,0,7.632.049,11.446-.027,1.6-.032,2.4.3,2.3,2.169-0.09,1.647-.541,2.571-2.3,2.32-3.537-.5-3.557,1.681-3.517,4.255,0.1,6.471.027,12.945,0.031,19.417,0,1.529.158,2.9-2.206,2.894-2.207-.009-2.369-1.114-2.347-2.778,0.046-3.484.014-6.97,0.014-10.455h-0.04Zm78.557-.285c0-2.492.05-4.986-.01-7.477-0.07-2.749,1.17-6.369-4.05-5.639-1.68.234-1.19-1.611-1.33-2.661-0.24-1.766.94-1.77,2.18-1.764,3.82,0.021,7.65.038,11.46,0,1.55-.017,2.45.275,2.37,2.183-0.07,1.707-.66,2.545-2.34,2.29-3.59-.543-3.51,1.684-3.48,4.21,0.1,6.313.08,12.628,0.01,18.942-0.01,1.452.76,3.4-2.12,3.461-2.93.065-2.66-1.71-2.66-3.571,0.02-3.323.01-6.646,0.01-9.969h-0.04Zm-578.057,167.5a209.662,209.662,0,0,0,36.954-2.411c0,8.029-1.605,8.711-8.82,5.381-4.149-1.916-8.837.112-13.285,0.551-4.226.417-8.52,2.36-12.714-.526C434.87,899.914,434,899.212,433.933,897.744Zm-16-1.918,13,2.016c-2.6,5.377-4.515,5.762-8.412,1.7C421.15,898.109,417.374,899.649,417.937,895.826ZM394,889.608q7.349,2.244,14.7,4.487c-4.456,1.872-9.039.225-13.532,0.217C393.137,894.308,394.239,891.282,394,889.608ZM599.5,836.6l10.944-8.375a7.1,7.1,0,0,0,.59.671c-2.082,4.061-5.11,7.394-8.205,10.676C602.727,837.452,601.317,836.8,599.5,836.6ZM493.93,1043.54c-3.129,1.14-6.162,2.76-10.646,2,3.509-1.59,6.219-2.82,8.929-4.05A2.24,2.24,0,0,1,493.93,1043.54Zm87.684-194.757,4.281-2.867c-0.065,1.467,1.82,3.2-.4,4.351C583.806,851.145,582.3,850.855,581.614,848.783Zm-26.648,33.16a14.725,14.725,0,0,1-4.956,3.335l-0.111-2.522C551.759,883.555,552.826,879.405,554.966,881.943Zm45.055-39.138a12.364,12.364,0,0,1-3.964,4.432C595.4,843.986,596.413,842.235,600.021,842.805ZM242,893.62l-6.3-1.289a9.613,9.613,0,0,1,6.311-.242Q242.006,892.854,242,893.62ZM586.474,845.6a9.9,9.9,0,0,1,4.407-2.952C591.136,846.207,588.75,845.819,586.474,845.6Zm-38.322,40.82L545.1,888.3c-0.153-1.308-.053-2.574,1.39-3.072C547.382,884.922,547.84,885.672,548.152,886.418Zm4.735-20.7,2.761-1.621C555.778,866.433,555.14,867.453,552.887,865.723Zm21.268-12.273a4.354,4.354,0,0,1,2.75-1.66,12.3,12.3,0,0,1,.968,1.511C576.706,854.287,575.413,853.492,574.155,853.45Zm21.457-5.711a6.522,6.522,0,0,1-2.774,2.866C592.711,848.631,593.494,847.539,595.612,847.739ZM746.993,1197.45q1.53,1.65,3.059,3.32C747.529,1201.05,746.559,1199.89,746.993,1197.45ZM511.548,884.237l3.369-1.259C514.453,885.163,513.039,884.8,511.548,884.237Zm75.1-27.5a5.31,5.31,0,0,1-2.6,2.452C583.754,857.142,584.967,856.692,586.65,856.742Zm-86.007,48.4a0.642,0.642,0,1,1-.319.813A1.627,1.627,0,0,1,500.643,905.143Zm46.276-36.326L548.9,867.8C548.7,869.037,548.5,870.261,546.919,868.817Zm-36,15.81,0.166-.288,0.333,0c0.1,0.493.674,1-.04,1.469Zm38.983-1.871-0.416-.229,0.187-.187ZM931.451,628.31l0.141,0.177a1.889,1.889,0,0,0-.241-0.032C931.347,628.464,931.451,628.31,931.451,628.31ZM610.442,828.227c0.715-.827,1.468-0.61,2.233-0.082l-0.035.02-1.608.733A7.1,7.1,0,0,1,610.442,828.227Zm2.233-.082-0.751-.574,0.412-.354c0.1,0.317.191,0.635,0.295,0.951C612.64,828.165,612.675,828.145,612.675,828.145ZM379.627,990.393a24.851,24.851,0,0,1-10.429.732l10.213-2.39ZM1038.79,864.006h16.93c0.01,0.168.01,0.335,0.01,0.5H1038.8C1038.8,864.341,1038.8,864.174,1038.79,864.006ZM936.323,1176.12c13.239,1.05,21.464-4.91,24.991-18.83,2.857,5.11,5.09,8.51,6.718,12.18,1.461,3.3,3.773,4.65,7.145,5.12,4.035,0.57,8.022,1.48,12.64,2.36-3.46,3.64-6.312,6.87-9.422,9.83a6.919,6.919,0,0,0-2.237,7.08c0.808,4.06,1.114,8.21,1.743,13.17-4.49-2.01-8.553-3.56-12.342-5.61a6.9,6.9,0,0,0-7.352-.05c-3.775,2.03-7.776,3.64-12.336,5.73,0.513-4.26.7-8,1.47-11.61,0.838-3.91.257-6.95-2.944-9.69-2.871-2.46-5.268-5.47-7.874-8.23C936.456,1177.09,936.39,1176.6,936.323,1176.12Zm73.5,2.37c8.9,0.01,14.99-3.26,17.39-12.25,2.9,8.38,8.4,12.65,17.82,12.14-3.26,3.65-6.74,5.98-7.79,9.13s0.33,7.11.7,11.33c-3.82-1.58-7.22-4.06-10.62-4.08-3.33-.01-6.66,2.49-10.51,4.11,0.31-4.01,1.63-8.02.58-11.28C1016.37,1184.43,1012.93,1182.05,1009.82,1178.49Zm-113.088-12.56c2.646,8.49,7.652,13.31,17.049,12.74-7.061,5.42-9.637,11.66-6.693,20.18-7.265-4.88-14.086-5.09-21.325.22,2.236-8.18,1.129-14.87-6.973-19.51,4.223-2.27,8.781-1.1,11.418-3.34C892.929,1173.91,894.278,1169.98,896.732,1165.93Z"/>
</svg>
